<?xml version="1.0" encoding="UTF-8" standalone="no" ?>
<!DOCTYPE svg PUBLIC "-//W3C//DTD SVG 1.1//EN" "http://www.w3.org/Graphics/SVG/1.1/DTD/svg11.dtd">
<svg xmlns="http://www.w3.org/2000/svg" xmlns:xlink="http://www.w3.org/1999/xlink" version="1.1" width="570.6524127673545" height="570.6524100575771" viewBox="-77.65619706748424 12.944273852828303 570.6524127673545 570.6524100575771" xml:space="preserve">
<desc>Created with Fabric.js 5.3.0</desc>
<defs>
</defs>
<g transform="matrix(1 0 0 1 207.6700079613 298.2704788816)" id="207q1IqTvm0VSG7AWqbKL"  >
<filter id="SVGID_91" y="-21.849617209999998%" height="143.69923441999998%" x="-20.18496172%" width="140.36992344%" >
	<feGaussianBlur in="SourceAlpha" stdDeviation="0"></feGaussianBlur>
	<feOffset dx="1" dy="10" result="oBlur" ></feOffset>
	<feFlood flood-color="rgb(0,0,0)" flood-opacity="1"/>
	<feComposite in2="oBlur" operator="in" />
	<feMerge>
		<feMergeNode></feMergeNode>
		<feMergeNode in="SourceGraphic"></feMergeNode>
	</feMerge>
</filter>
<path style="stroke: rgb(182,34,51); stroke-width: 0; stroke-dasharray: none; stroke-linecap: butt; stroke-dashoffset: 0; stroke-linejoin: miter; stroke-miterlimit: 4; fill: rgb(102,20,217); fill-rule: nonzero; opacity: 1;filter: url(#SVGID_91);" vector-effect="non-scaling-stroke"  transform=" translate(-270.3262050288, -270.3262050288)" d="M 270.32621 0 C 419.54628 0 540.65242 121.10614 540.65242 270.32621 C 540.65242 419.54628 419.54628 540.65242 270.32621 540.65242 C 121.10614000000001 540.65242 0 419.54628 0 270.32621 C 0 121.10614000000001 121.10614 0 270.32621 0 z" stroke-linecap="round" />
</g>
<g transform="matrix(1 0 0 1 252.9000827343 290.9627522621)" id="-9B-J2i60Kfs760JcDWS6"  >
<filter id="SVGID_75" y="-21.90100714%" height="143.80201428%" x="-21.11063658%" width="142.22127316%" >
	<feGaussianBlur in="SourceAlpha" stdDeviation="0"></feGaussianBlur>
	<feOffset dx="-5" dy="10" result="oBlur" ></feOffset>
	<feFlood flood-color="rgb(0,0,0)" flood-opacity="1"/>
	<feComposite in2="oBlur" operator="in" />
	<feMerge>
		<feMergeNode></feMergeNode>
		<feMergeNode in="SourceGraphic"></feMergeNode>
	</feMerge>
</filter>
<path style="stroke: rgb(151,203,77); stroke-width: 0; stroke-dasharray: none; stroke-linecap: butt; stroke-dashoffset: 0; stroke-linejoin: miter; stroke-miterlimit: 4; fill: rgb(151,203,77); fill-rule: nonzero; opacity: 1;filter: url(#SVGID_75);" vector-effect="non-scaling-stroke"  transform=" translate(0, 0)" d="M -45.23008 -263.01847 C -37.03939 -263.01847 -28.933410000000002 -262.65358999999995 -20.92751 -261.93919999999997 L -165.16226 -175.27421999999996 C -180.22518 -166.22350999999995 -199.77312 -171.09736999999996 -208.82383 -186.16026999999997 L -209.78710999999998 -187.76343999999997 C -212.76592 -192.72100999999998 -214.23638 -198.16440999999998 -214.33166999999997 -203.55951 C -168.01885999999996 -240.7557 -109.20853999999997 -263.01847 -45.23007999999999 -263.01847 z M 225.09613 7.30774 C 225.09613 19.93608 224.22876 32.36306 222.55039 44.53233 L -31.223770000000002 197.01523 C -46.28669 206.06594 -65.83463 201.19208 -74.88534 186.12918 L -75.84862 184.52600999999999 C -84.89932999999999 169.46309 -80.02547 149.91514999999998 -64.96257 140.86444 L 116.39822000000001 31.89188 C 124.98976 21.77365 126.62417 6.91478 119.40881 -5.093600000000002 L 118.44553 -6.6967700000000026 C 110.777 -19.459340000000005 95.57260000000001 -24.90728 81.94542000000001 -20.768430000000002 L -56.14628999999999 62.20544 C -71.20921 71.25615 -90.75715 66.38229 -99.80785999999999 51.319390000000006 L -100.77113999999999 49.71622000000001 C -109.82184999999998 34.65330000000001 -104.94798999999999 15.105360000000005 -89.88508999999999 6.054650000000009 L -26.490549999999992 -32.03662999999999 C -11.438999999999991 -41.09116999999999 -6.5711699999999915 -60.63141999999999 -15.618979999999992 -75.68949999999998 L -16.58225999999999 -77.29266999999999 C -23.62392999999999 -89.01198 -38.22915999999999 -88.66769 -49.77949999999999 -88.41113999999999 L -49.77949999999999 -88.41113999999999 C -56.63701999999999 -88.25882999999999 -63.33622999999999 -86.32060999999999 -69.21571999999999 -82.78786 C -104.42872 -61.62975999999999 -175.92176999999998 -18.672399999999996 -175.92176999999998 -18.672399999999996 C -190.98468999999997 -9.621689999999996 -210.53262999999998 -14.495549999999996 -219.58333999999996 -29.558449999999993 L -220.54661999999996 -31.161619999999992 C -229.59732999999997 -46.22453999999999 -224.72346999999996 -65.77248 -209.66056999999995 -74.82318999999998 L -52.805909999999955 -169.07097999999996 C -45.255409999999955 -179.12131999999997 -44.09871999999996 -193.14596999999998 -50.97156999999996 -204.58432999999997 L -51.934849999999955 -206.18749999999997 C -60.98555999999996 -221.25041999999996 -80.53350999999995 -226.12425999999996 -95.59641999999995 -217.07354999999998 L -20.927479999999946 -261.93917999999996 C 116.92015000000006 -249.63869999999997 225.09613000000004 -133.72160999999997 225.09613000000004 7.30776000000003 z M 54.81293 221.74228 L 118.20749 183.65098999999998 C 133.25904 174.59644999999998 138.12687 155.0562 129.07906 139.99811999999997 L 128.11578 138.39494999999997 C 119.06507 123.33202999999996 84.45421 127.50889999999997 84.45421 127.50889999999997 L 222.55038000000002 44.532349999999965 C 208.48354 146.52566999999996 137.44775 230.41562 42.62676000000002 263.01847 C 35.41090000000002 248.33527999999998 40.53372000000002 230.32209999999998 54.81293000000002 221.74228999999997 z" stroke-linecap="round" />
</g>
</svg>