<?xml version="1.0" encoding="UTF-8"?>
<svg width="1160px" height="1815px" viewBox="0 0 1160 1815" xmlns="http://www.w3.org/2000/svg" xmlns:xlink="http://www.w3.org/1999/xlink" version="1.1">
 <!-- Generated by Pixelmator Pro Demo 2.0.6 -->
 <g id="-copy">
  <g id="group">
   <path id="Path" d="M105.039 1473.852 C112.06 1524.866 119.764 1575.585 128.674 1630.656 130.281 1642.322 141.941 1649.743 154.835 1648.573 240.74 1640.898 321.982 1632.74 401.552 1621.787 443.829 1615.97 485.628 1609.329 527.481 1601.595 521.896 1550.784 516.023 1503.721 509.59 1456.973 502.339 1404.297 494.371 1351.962 485.285 1295.024 483.402 1283.395 471.938 1275.344 459.124 1277.104 388.465 1284.574 323.681 1291.999 258.705 1300.943 202.944 1308.616 147.011 1317.404 87.063 1328.315 92.695 1379.483 98.56 1426.789 105.039 1473.852 Z M17.973 841.289 C24.997 892.308 32.702 943.024 41.606 998.054 43.218 1009.763 54.873 1017.145 67.772 1016.01 153.676 1008.339 234.921 1000.179 314.489 989.228 356.765 983.41 398.565 976.769 440.417 969.037 434.833 918.221 428.959 871.16 422.526 824.415 415.271 771.699 407.307 719.401 398.222 662.463 396.339 650.834 384.874 642.781 372.061 644.543 301.402 652.013 236.618 659.441 171.644 668.382 115.88 676.057 59.95 684.846 -0.001 695.752 5.632 746.92 11.496 794.228 17.973 841.289 Z" fill="#002dff" fill-opacity="1" stroke="none"/>
   <path id="Path-1" d="M650.897 1814.944 L1025.445 1807.275 C1101.065 1481.304 1153.265 1198.573 1108.738 875.075 1064.214 551.578 937.581 293.498 776.699 0 L414.009 93.842 C513.801 385.555 582.882 637.732 624.718 941.695 666.553 1245.656 668.163 1507.078 650.897 1814.944 Z" fill="#002dff" fill-opacity="1" stroke="none"/>
  </g>
  <g id="group-1">
   <path id="Path-2" d="M18.914 1249.082 C12.181 1300.138 6.188 1351.087 0.205 1406.553 -1.335 1418.226 7.945 1428.47 20.691 1430.755 105.561 1446.092 186.067 1459.724 265.698 1470.224 308.005 1475.802 350.074 1480.462 392.48 1484.081 400.544 1433.604 407.338 1386.666 413.504 1339.883 420.456 1287.167 426.624 1234.585 432.93 1177.273 434.194 1165.564 425.268 1154.761 412.446 1153.073 342.329 1141.572 277.891 1131.587 212.867 1123.013 157.061 1115.653 100.799 1109.323 40.098 1103.981 31.988 1154.814 25.124 1201.984 18.914 1249.082 Z M102.378 616.034 C95.647 667.092 89.654 718.041 83.675 773.464 82.132 785.182 91.416 795.385 104.156 797.707 189.026 813.046 269.533 826.68 349.162 837.178 391.472 842.758 433.54 847.416 475.944 851.035 484.01 800.558 490.802 753.618 496.97 706.837 503.926 654.079 510.088 601.539 516.397 544.227 517.658 532.515 508.735 521.713 495.912 520.025 425.795 508.524 361.357 498.541 296.331 489.968 240.526 482.609 184.263 476.279 123.564 470.933 115.452 521.766 108.588 568.936 102.378 616.034 Z" fill="#ff002b" fill-opacity="1" stroke="none"/>
   <path id="Path-3" d="M455.026 1722.488 L646.056 1814.959 C785.082 1557.908 1070.339 1327.229 1125.193 1057.474 1133.13 1018.335 1139.891 978.356 1145.303 937.315 1187.989 613.568 1134.18 331.178 1056.716 5.561 L769.623 0.044 C779.915 166.611 697.122 319.657 692.865 473.194 689.314 603.345 679.31 733.898 660.912 873.45 620.804 1177.642 553.163 1430.169 455.026 1722.488 Z" fill="#ff002b" fill-opacity="1" stroke="none"/>
  </g>
  <g id="group-2">
   <path id="Path-4" d="M131.725 1343.76 C131.725 1392.987 132.411 1442.029 133.671 1495.344 133.671 1506.601 143.747 1515.153 156.112 1515.723 238.468 1519.653 316.474 1522.517 393.26 1522.517 434.056 1522.517 474.509 1521.678 515.154 1519.806 516.491 1470.959 517.061 1425.619 517.061 1380.508 517.061 1329.675 516.337 1279.07 515.154 1223.962 514.888 1212.705 505.079 1203.583 492.715 1203.583 424.82 1201.446 362.498 1200.031 299.797 1200.031 245.985 1200.031 191.87 1201.063 133.671 1203.583 132.335 1252.775 131.725 1298.343 131.725 1343.76 Z M131.725 733.33 C131.725 782.56 132.411 831.6 133.671 884.875 133.671 896.173 143.747 904.686 156.112 905.294 238.468 909.225 316.474 912.09 393.26 912.09 434.056 912.09 474.509 911.248 515.154 909.379 516.491 860.529 517.061 815.191 517.061 770.081 517.061 719.211 516.337 668.642 515.154 613.535 514.888 602.276 505.079 593.153 492.715 593.153 424.82 591.017 362.498 589.606 299.797 589.606 245.985 589.606 191.87 590.636 133.671 593.153 132.335 642.346 131.725 687.913 131.725 733.33 Z" fill="#ffffff" fill-opacity="1" stroke="none"/>
   <path id="Path-5" d="M604.23 1737.95 L959.953 1779.511 C1074.06 1480.65 1160.35 1219.689 1160.35 907.509 1160.35 595.329 1074.06 334.405 959.953 35.467 L604.23 77.066 C660.711 366.35 693.265 614.182 693.265 907.509 693.265 1200.832 660.711 1448.633 604.23 1737.95 Z" fill="#ffffff" fill-opacity="1" stroke="none"/>
  </g>
 </g>
</svg>
